PathFileType	4	(X/Y/Z)	C:/Users/opensim2020/Desktop/walking_exp_matlab/subject02_walking10_straight_03.trc																																																																																																																															
DataRate	CameraRate	NumFrames	NumMarkers	Units	OrigDataRate	OrigDataStartFrame	OrigNumFrames																																																																																																																											
100	100	4	43	mm	100	2291	270																																																																																																																											
Frame#	Time	LFHD			RFHD			LBHD			RBHD			C7			T10			CLAV			STRN			RBAK			LSHO			LUPA			LELB			LFRM			LWRA			LWRB			LFIN			RSHO			RUPA			RELB			RFRM			RWRA			RWRB			RFIN			LASI			RASI			LPSI			RPSI			LTHI			LKNE			LTIB			LANK			LHEE			LTOE			RTHI			RKNE			RTIB			RANK			RHEE			RTOE			*39			*40			*41			*42		
		X1	Y1	Z1	X2	Y2	Z2	X3	Y3	Z3	X4	Y4	Z4	X5	Y5	Z5	X6	Y6	Z6	X7	Y7	Z7	X8	Y8	Z8	X9	Y9	Z9	X10	Y10	Z10	X11	Y11	Z11	X12	Y12	Z12	X13	Y13	Z13	X14	Y14	Z14	X15	Y15	Z15	X16	Y16	Z16	X17	Y17	Z17	X18	Y18	Z18	X19	Y19	Z19	X20	Y20	Z20	X21	Y21	Z21	X22	Y22	Z22	X23	Y23	Z23	X24	Y24	Z24	X25	Y25	Z25	X26	Y26	Z26	X27	Y27	Z27	X28	Y28	Z28	X29	Y29	Z29	X30	Y30	Z30	X31	Y31	Z31	X32	Y32	Z32	X33	Y33	Z33	X34	Y34	Z34	X35	Y35	Z35	X36	Y36	Z36	X37	Y37	Z37	X38	Y38	Z38	X39	Y39	Z39	X40	Y40	Z40	X41	Y41	Z41	X42	Y42	Z42	X43	Y43	Z43
																																																																																																																																		
102	1.01	-280.34909	1715.72583	1426.28052	-268.05811	1705.85583	1569.74683	-412.46637	1643.02759	1434.14075	-412.44049	1631.6322	1577.69385	-462.13922	1508.25928	1519.87683	-521.33118	1234.11328	1533.11682	-326.53452	1436.30261	1499.4541	-277.17148	1265.07593	1519.45874	-518.70813	1340.25061	1597.90454	-410.04944	1470.09082	1335.16321	-465.71347	1274.41528	1267.99048	-501.56778	1139.04358	1265.97107	-529.19946	1011.18188	1251.02515	-501.51266	874.46338	1261.80774	-553.34387	890.07654	1245.33948	-551.5968	823.18695	1236.85071	-366.01605	1484.67419	1699.07886	-352.05896	1295.21777	1793.19812	-299.92679	1156.18799	1811.82129	-232.16129	1055.28967	1819.95435	-149.6041	952.6347	1786.43103	-185.8951	933.5437	1826.27844	-128.55325	890.01233	1820.77661	-277.47336	977.90997	1403.24866	-297.89264	954.25818	1662.10974	-494.10883	1012.5321	1470.84607	-506.33984	1012.8363	1583.49353	-269.86429	678.55792	1322.47839	-231.95532	480.66513	1351.24768	-225.26003	286.72919	1345.01685	-144.84467	76.09527	1361.69824	-164.90565	39.53986	1416.2749	11.74232	76.86868	1343.24902	-432.62024	657.55591	1707.33936	-478.96741	452.27414	1666.0498	-577.19965	289.19562	1663.3728	-650.11243	109.80702	1620.91345	-692.61481	62.39093	1561.99402	-513.35382	33.42176	1647.01282	-372.09009	1788.83801	1520.57397	2845.1731	1034.17566	-3360.38306	NaN	NaN	NaN	NaN	NaN	NaN
103	1.02	-272.91995	1715.43103	1423.8999	-260.22137	1705.57373	1567.323	-404.77527	1642.33167	1432.15198	-404.49744	1631.0769	1575.76733	-453.76718	1507.35278	1517.5813	-512.09302	1232.92908	1530.48315	-317.88593	1435.89221	1497.36279	-267.9375	1264.86914	1517.4635	-509.69589	1338.91638	1595.36267	-401.28305	1469.48999	1332.99268	-456.89569	1273.80444	1265.4458	-491.92236	1138.2207	1263.82764	-518.94177	1010.39777	1249.07593	-490.95001	873.38763	1259.67371	-543.24164	889.23065	1243.35962	-540.89722	822.18707	1234.56555	-357.97083	1484.25757	1696.86682	-344.14206	1294.87354	1791.00366	-292.66574	1155.48621	1809.29639	-224.99959	1054.54846	1817.46802	-142.2413	951.94464	1784.16199	-178.71048	932.86237	1823.93677	-121.49683	888.99438	1818.32678	-266.71088	978.35315	1401.30872	-288.27289	954.06635	1660.06323	-483.57556	1011.63861	1467.77649	-496.43893	1011.89886	1580.30347	-259.46436	677.66791	1320.58118	-223.42436	479.34741	1350.00134	-219.46313	285.17538	1344.08887	-142.56924	73.20333	1361.85083	-164.10008	37.1818	1415.99634	14.08075	72.51589	1345.26208	-424.74329	657.66681	1706.08606	-472.16394	452.55347	1665.771	-572.92987	291.11151	1663.03162	-648.65228	112.6804	1621.25659	-691.72198	66.38674	1562.45056	-513.12518	33.44558	1647.33911	-364.65927	1788.19775	1518.46887	2845.17578	1034.23157	-3360.27759	NaN	NaN	NaN	NaN	NaN	NaN
104	1.03	-265.46539	1715.09131	1421.55554	-252.42929	1705.24548	1564.98242	-397.10294	1641.52271	1430.11487	-396.42941	1629.93665	1573.29797	-445.44516	1506.39832	1515.22034	-502.73889	1231.65955	1527.67517	-309.17737	1435.47815	1495.23889	-258.59552	1264.63928	1515.37561	-501.49487	1338.35339	1593.41418	-392.47067	1468.90845	1330.83057	-446.86215	1272.89429	1263.52588	-482.01456	1137.44043	1261.65234	-508.75891	1009.60529	1246.93054	-480.45538	872.6604	1257.34814	-532.75824	888.50983	1241.11609	-530.57312	821.32898	1232.13232	-349.97488	1483.77625	1694.60474	-336.116	1294.70813	1788.91748	-285.15921	1155.09851	1807.1449	-217.63461	1053.98059	1815.51099	-135.18263	951.10968	1781.8678	-171.64474	932.10144	1821.65613	-114.27993	888.20245	1816.11792	-255.61542	978.85876	1399.29297	-278.25607	953.93396	1657.88147	-473.02328	1010.76508	1464.61255	-486.19403	1010.83893	1576.90991	-249.20361	676.67737	1318.65625	-215.29326	477.75244	1348.63171	-213.938	283.39734	1342.99829	-140.78232	70.14555	1361.96692	-163.29448	34.36371	1415.43506	16.08104	67.93905	1347.36304	-416.63821	657.85236	1704.78601	-465.00333	452.79391	1665.45862	-568.37366	293.06195	1662.51685	-646.98242	115.92131	1621.63269	-690.90973	70.51603	1562.71265	-512.88306	33.55233	1647.68103	-357.26266	1787.49231	1516.37244	2845.77734	1034.17432	-3357.44507	NaN	NaN	NaN	NaN	NaN	NaN
105	1.04	-258.07654	1714.63538	1419.13562	-244.62277	1704.80774	1562.49048	-389.33139	1640.57947	1427.93945	-388.15762	1629.08789	1571.46045	-437.09558	1505.30847	1512.76245	-493.26773	1230.21179	1524.61487	-300.45218	1434.97156	1493.03247	-249.08148	1264.37708	1513.19373	-492.30896	1336.73193	1590.45251	-383.54413	1468.2876	1328.53125	-437.20523	1272.28015	1261.08508	-471.86798	1136.58252	1259.32703	-498.21414	1008.63849	1244.47827	-469.70026	871.85284	1255.0354	-521.6687	887.25745	1238.60059	-519.28534	820.26599	1230.04297	-342.04529	1483.22546	1692.20972	-328.43457	1294.26257	1786.39185	-278.00247	1154.453	1804.86011	-210.74187	1053.15784	1813.02405	-128.21381	950.19324	1779.62305	-164.70885	931.26752	1819.40735	-107.63193	887.01917	1813.66882	-244.24641	979.30487	1397.16003	-268.00992	953.82782	1655.55835	-461.97717	1009.70673	1461.01978	-475.62308	1009.71301	1573.20422	-239.17242	675.49847	1316.72375	-207.55382	475.99112	1347.12854	-208.75768	281.37439	1341.98877	-138.86417	67.08727	1362.23718	-162.07649	32.89007	1415.32898	18.42349	62.03739	1349.26233	-408.37231	658.0047	1703.32751	-457.57861	453.26941	1665.26941	-563.74274	295.34225	1662.30164	-645.13434	119.25131	1621.98865	-689.00391	74.36378	1562.90173	-512.61829	33.52641	1647.99866	-349.91043	1786.73181	1514.18701	2845.08154	1034.00464	-3360.34302	NaN	NaN	NaN	NaN	NaN	NaN
